<svg width="50" height="80" viewBox="0 0 50 80" fill="none" xmlns="http://www.w3.org/2000/svg">
<g clip-path="url(#clip0_246_548)">
<path d="M13.078 30.1914C13.0762 30.0785 13.0738 29.9658 13.0738 29.8526C13.0738 19.0666 21.5799 10.3228 32.0726 10.3228C41.1149 10.3228 48.681 16.8165 50.6002 25.5148C52.39 24.4849 54.4515 23.8952 56.6483 23.8952C63.5031 23.8952 69.06 29.6075 69.06 36.6539C69.06 36.9419 69.0475 37.2268 69.0291 37.5101C74.118 39.452 77.7448 44.4873 77.7448 50.3941C77.7448 57.9825 71.7605 64.1344 64.3782 64.1344H16.7082C7.48054 64.1341 0 56.4445 0 46.9589C0 38.7548 5.59603 31.8954 13.078 30.1914Z" fill="#1EA6C6"/>
</g>
<defs>
<clipPath id="clip0_246_548">
<rect width="50" height="80" fill="white" transform="matrix(-1 0 0 1 50 0)"/>
</clipPath>
</defs>
</svg>
